# xmcd
#
# Track frame offsets:
#	150
#	15286
#	33744
#	49856
#	72596
#	91565
#	110272
#	128818
#	140563
#	159516
#	182019
#	196191
#
# Disc length: 2912 seconds
#
# Revision: 1
# Processed by: cddbd v1.5.2PL0 Copyright (c) Steve Scherf et al.
# Submitted via: audiograbber 1.83.01
#
DISCID=9a0b5e0c
DTITLE=Doug James Sax Gordon - Swing jump jive
DYEAR=2006
DGENRE=
TTITLE0=Shake,rattle and roll
TTITLE1=Can't stand up
TTITLE2=Mother in law
TTITLE3=Goin' back to California
TTITLE4=You send me
TTITLE5=Wombat Boogie
TTITLE6=Kansas City
TTITLE7=Meet Bobo Baywindow
TTITLE8=Blueberry Hill
TTITLE9=Knickerbocker Rocker
TTITLE10=Hit the road Jack
TTITLE11=I'll take the Fifth
EXTD=
EXTT0=
EXTT1=
EXTT2=
EXTT3=
EXTT4=
EXTT5=
EXTT6=
EXTT7=
EXTT8=
EXTT9=
EXTT10=
EXTT11=
PLAYORDER=
